<?xml version="1.0" encoding="iso-8859-1"?>
<!-- Generator: Adobe Illustrator 16.0.4, SVG Export Plug-In . SVG Version: 6.00 Build 0)  -->
<!DOCTYPE svg PUBLIC "-//W3C//DTD SVG 1.1//EN" "http://www.w3.org/Graphics/SVG/1.1/DTD/svg11.dtd">
<svg version="1.1" id="Capa_1" xmlns="http://www.w3.org/2000/svg" xmlns:xlink="http://www.w3.org/1999/xlink" x="0px" y="0px"
	 width="66.137px" height="66.135px" viewBox="0 0 66.137 66.135" style="enable-background:new 0 0 66.137 66.135;"
	 xml:space="preserve">
<g>
	<path d="M33.066,66.135C14.833,66.135,0,51.301,0,33.068C0,14.834,14.833,0,33.066,0c18.235,0,33.07,14.834,33.07,33.068
		C66.137,51.301,51.302,66.135,33.066,66.135z M33.066,4C17.039,4,4,17.04,4,33.068s13.039,29.067,29.066,29.067
		c16.029,0,29.07-13.04,29.07-29.067S49.096,4,33.066,4z"/>
	<polygon points="33.067,16.696 38.821,27.247 48.967,28.247 41.142,36.387 42.895,46.938 33.067,41.798 23.241,46.938 
		24.995,36.387 17.169,28.247 27.314,27.247 	"/>
</g>
<g>
</g>
<g>
</g>
<g>
</g>
<g>
</g>
<g>
</g>
<g>
</g>
<g>
</g>
<g>
</g>
<g>
</g>
<g>
</g>
<g>
</g>
<g>
</g>
<g>
</g>
<g>
</g>
<g>
</g>
</svg>
