<?xml version="1.0" encoding="utf-8"?>
<!-- Generator: Adobe Illustrator 16.0.0, SVG Export Plug-In . SVG Version: 6.00 Build 0)  -->
<!DOCTYPE svg PUBLIC "-//W3C//DTD SVG 1.1//EN" "http://www.w3.org/Graphics/SVG/1.1/DTD/svg11.dtd">
<svg version="1.1" id="Capa_1" xmlns="http://www.w3.org/2000/svg" xmlns:xlink="http://www.w3.org/1999/xlink" x="0px" y="0px"
	 width="800px" height="800px" viewBox="0 0 800 800" enable-background="new 0 0 800 800" xml:space="preserve">
<g>
	<g>
		<path fill="#1D1D1B" d="M398.425,177.25c-47.864,0-86.804-38.94-86.804-86.805c0-47.853,38.94-86.783,86.804-86.783
			c47.858,0,86.795,38.931,86.795,86.783C485.22,138.31,446.283,177.25,398.425,177.25z M398.425,23.458
			c-36.949,0-67.009,30.051-67.009,66.988c0,36.949,30.06,67.01,67.009,67.01c36.944,0,67-30.061,67-67.01
			C465.425,53.508,435.369,23.458,398.425,23.458z"/>
	</g>
	<g>
		<path fill="#1D1D1B" d="M455.526,795.861c-25.388,0-46.042-20.653-46.042-46.04V593.897h-21.558v155.924
			c0,25.387-20.654,46.04-46.041,46.04s-46.041-20.653-46.041-46.04V489.632c-22.3-13.227-35.904-36.874-35.904-63.115V267.845
			c0-33.583,22.493-62.608,54.867-71.063c4.082-1.803,166.014-0.69,168.982,0.484c31.324,9.053,53.11,37.924,53.11,70.58v158.672
			c0,25.761-13.252,49.201-34.971,62.551l-0.363,260.768C501.566,775.208,480.913,795.861,455.526,795.861z M368.132,574.103h61.147
			v175.719c0,14.472,11.774,26.245,26.247,26.245c14.472,0,26.245-11.773,26.245-26.245l0.38-272.642
			c0,0,34.099-18.43,34.954-50.663V267.845c0-24.113-16.266-45.402-39.556-51.772l-156.757-0.386
			c-24.174,5.84-41.058,27.289-41.058,52.158v158.672c-0.01,37.233,35.904,51.013,35.904,51.013v272.292
			c0,14.472,11.774,26.245,26.246,26.245s26.246-11.773,26.246-26.245V574.103z"/>
	</g>
	<g>
		<path fill="#1D1D1B" d="M198.89,284.031c-39.396,0-71.448-32.051-71.448-71.446c0.001-39.39,32.053-71.437,71.449-71.437
			c17.445,0,35.152,5.23,47.837,15.311c27.105,21.541,23.508,50.146,23.508,50.146s-26.633,19.617-26.122,61.703l-6.906,4.517
			C225.693,280.156,212.443,284.031,198.89,284.031z M198.891,160.943c-28.481,0-51.653,23.167-51.654,51.642
			c0,28.48,23.171,51.651,51.653,51.651c8.214,0,19.67-4.05,26.981-7.826c1.229-10.312,1.039-14.863,6.16-29.041
			c3.053-8.452,9.278-19.256,18.467-26.975C248.751,174.747,223.087,160.943,198.891,160.943z"/>
	</g>
	<g>
		<path fill="#1D1D1B" d="M254.56,786.473c-21.402,0-38.813-17.416-38.813-38.822V624.832h-13.299V747.65
			c0,21.406-17.42,38.822-38.832,38.822c-21.401,0-38.812-17.416-38.812-38.822l-0.292-207.583
			c-17.411-11.127-27.993-30.209-27.993-51.151V363.969c0.001-26.949,17.911-50.762,43.694-58.304
			c2.657-1.077,104.17-0.409,104.17-0.409v138.967c-0.548,35.609,34.955,50.652,34.955,50.652l0.39,244.45
			c0,10.636-0.016,17.565-0.319,21.276c0.11,7.011-2.436,13.732-7.046,18.539C267.827,783.869,261.506,786.473,254.56,786.473z
			 M182.652,605.037h52.889V747.65c0,10.492,8.532,19.121,19.019,19.027c5.38-0.048,5.371-10.066,5.371-10.066
			c0.277-2.646-0.371-249.846-0.371-249.846c-21.72-13.35-34.974-36.787-34.974-62.542V324.619
			c-34.322,0.009-78.084-0.163-78.084-0.163c-17.774,4.843-30.189,21.091-30.189,39.513v124.947c0,15.528,8.642,29.545,22.554,36.58
			l5.422,2.742l0.309,219.398c0,10.506,8.531,19.041,19.018,19.041c10.497,0,19.037-8.535,19.037-19.027V605.037z"/>
	</g>
	<g>
		<path fill="#1D1D1B" d="M562.79,272.825l-6.906-4.517c0.512-42.086-26.121-61.703-26.121-61.703s-3.598-28.605,23.508-50.146
			c12.686-10.081,30.393-15.311,47.838-15.311c39.396,0,71.447,32.046,71.448,71.437c0,39.396-32.052,71.446-71.448,71.446
			C587.556,284.031,574.306,280.156,562.79,272.825z M549.501,200.395c9.188,7.719,15.414,18.523,18.467,26.975
			c5.121,14.178,4.932,18.728,6.16,29.041c7.311,3.776,18.768,7.826,26.98,7.826c28.482,0,51.653-23.17,51.653-51.651
			c-0.001-28.476-23.173-51.642-51.653-51.642C576.911,160.943,551.248,174.747,549.501,200.395z"/>
	</g>
	<g>
		<path fill="#1D1D1B" d="M527.639,779.142c-4.61-4.807-7.156-11.528-7.046-18.539c-0.303-3.711-0.319-10.641-0.319-21.276
			l0.39-244.45c0,0,35.502-15.043,34.955-50.652V305.256c0,0,101.512-0.668,104.17,0.409c25.782,7.542,43.692,31.355,43.693,58.304
			v124.947c0,20.942-10.582,40.024-27.993,51.151l-0.292,207.583c0,21.406-17.411,38.822-38.812,38.822
			c-21.412,0-38.832-17.416-38.832-38.822V624.832h-13.299V747.65c0,21.406-17.412,38.822-38.814,38.822
			C538.493,786.473,532.172,783.869,527.639,779.142z M617.347,747.65c0,10.492,8.54,19.027,19.037,19.027
			c10.486,0,19.018-8.535,19.018-19.041l0.309-219.398l5.423-2.742c13.911-7.035,22.554-21.052,22.554-36.58V363.969
			c0-18.422-12.415-34.67-30.189-39.513c0,0-43.762,0.172-78.084,0.163v119.604c0,25.755-13.254,49.192-34.975,62.542
			c0,0-0.646,247.2-0.37,249.846c0,0-0.01,10.019,5.37,10.066c10.486,0.094,19.02-8.535,19.02-19.027V605.037h52.889V747.65z"/>
	</g>
</g>
</svg>
